<svg width="251" height="210" viewBox="0 0 251 210" fill="none" xmlns="http://www.w3.org/2000/svg">
<path d="M1 107.838L66.6075 208.65L116.246 133.977H104.409L66.6075 190.276L12.9566 107.693L66.6105 20.0763L104.301 79.634L116.246 79.6547L66.4939 1" fill="#1C1C28"/>
<path d="M1 107.838L66.6075 208.65L116.246 133.977H104.409L66.6075 190.276L12.9566 107.693L66.6105 20.0763L104.301 79.634L116.246 79.6547L66.4939 1" stroke="#1C1C28" stroke-miterlimit="10"/>
<path d="M162.186 31.8586L192.13 78.7303H180.161L162.353 50.9202L128.286 106.976L162.243 159.406L180.182 133.26H191.936L162.243 177.792L116.246 106.976L162.186 31.8586Z" fill="#1C1C28"/>
<path d="M218.426 87.3027L205.381 87.2197L198.756 95.9476L192.13 104.676L194.432 107.819C195.7 109.549 198.585 113.495 200.854 116.594C203.121 119.696 205.019 122.247 205.019 122.247C205.019 122.247 208.82 122.291 213.418 122.318C218.016 122.348 223.877 122.383 226.439 122.401L231.103 122.431L237.729 113.703L244.355 104.975L238.001 96.2913C234.506 91.5155 231.609 87.5575 231.561 87.4982L231.474 87.3886L218.429 87.3056L218.426 87.3027Z" stroke="#3E7BFA" stroke-width="10" stroke-miterlimit="10"/>
</svg>
