<svg width="64" height="64" viewBox="0 0 64 64" fill="none" xmlns="http://www.w3.org/2000/svg">
<path d="M21.0786 51.0929C21.0786 51.3683 20.8031 51.5651 20.4094 51.5651C20.0158 51.5651 19.7009 51.5651 19.7009 51.0929C19.7009 50.6208 20.0158 50.6208 20.3701 50.6208C20.7243 50.6208 21.0786 50.8175 21.0786 51.0929ZM17.1424 50.5027C17.1424 50.7782 17.1424 51.0929 17.6935 51.1716C17.8345 51.2393 17.9965 51.2483 18.1441 51.1968C18.2917 51.1452 18.4127 51.037 18.4807 50.8962C18.4807 50.6208 18.4807 50.3454 17.9297 50.2273C17.3786 50.1093 17.2212 50.2273 17.1424 50.5027ZM22.7318 50.306C22.3775 50.306 22.1414 50.6208 22.1807 50.9355C22.2201 51.2503 22.535 51.3683 22.9286 51.2896C23.3222 51.211 23.519 50.9355 23.4796 50.6601C23.4403 50.3847 23.1254 50.2667 22.7318 50.306ZM31.1157 0.41678C26.9646 0.377711 22.8482 1.17736 19.0138 2.76772C15.1795 4.35808 11.706 6.70638 8.80191 9.67168C5.89786 12.637 3.62304 16.1582 2.114 20.0239C0.604959 23.8897 -0.107248 28.0203 0.0202046 32.168C-0.0896926 38.9625 1.92621 45.6216 5.78627 51.2153C9.64633 56.8089 15.1578 61.0578 21.5509 63.3685C23.1648 63.6439 23.7551 62.621 23.7551 61.7947C23.7551 60.9685 23.7551 56.5225 23.7551 53.9257C23.7551 53.9257 14.8595 55.893 12.9701 49.9913C12.9701 49.9913 11.5531 46.0568 9.46696 45.2305C9.46696 45.2305 6.55421 43.1846 9.66377 43.2239C10.6822 43.3613 11.6543 43.7354 12.5019 44.3162C13.3496 44.8969 14.0492 45.6684 14.5446 46.5683C14.9564 47.3752 15.5289 48.0897 16.2269 48.6673C16.9248 49.2453 17.7335 49.6745 18.6033 49.9287C19.4732 50.1829 20.3859 50.2568 21.2853 50.1459C22.1848 50.0349 23.052 49.741 23.8338 49.2831C23.983 47.6404 24.6915 46.0989 25.8412 44.9158C18.7563 44.0895 11.5925 43.0666 11.5925 30.5155C11.5172 29.0975 11.7451 27.68 12.2609 26.3572C12.7767 25.0344 13.5687 23.8364 14.584 22.8434C13.626 19.9632 13.7378 16.8346 14.8988 14.0301C17.5754 13.1645 23.6763 17.5318 23.6763 17.5318C28.8886 16.0624 34.4059 16.0624 39.6177 17.5318C39.6177 17.5318 45.7188 13.1645 48.3953 14.0301C49.5817 16.8291 49.6935 19.9669 48.7102 22.8434C49.7616 23.8227 50.5953 25.0116 51.1581 26.3332C51.7206 27.6548 51.9997 29.0794 51.9772 30.5155C51.9772 43.1059 44.4986 44.0895 37.4135 44.9158C38.1255 45.7141 38.6675 46.6493 39.0061 47.664C39.3442 48.6787 39.4721 49.7516 39.3816 50.8175C39.3816 55.2241 39.3816 60.6537 39.3816 61.716C39.3792 61.9816 39.4406 62.244 39.5611 62.4809C39.6819 62.7178 39.8574 62.9224 40.0739 63.0766C40.29 63.2312 40.5408 63.3311 40.8037 63.3681C41.067 63.4055 41.3355 63.3784 41.5858 63.2898C47.9675 60.9992 53.4675 56.7625 57.3095 51.1783C61.152 45.5941 63.1417 38.944 62.9984 32.168C63.0354 27.9782 62.2352 23.8231 60.6446 19.9464C59.054 16.0697 56.7049 12.5494 53.7355 9.59213C50.7661 6.63481 47.2354 4.29988 43.3512 2.72432C39.467 1.14875 35.3073 0.364255 31.1157 0.41678ZM12.3797 45.3092C12.3797 45.3092 12.3797 45.742 12.3797 45.9781C12.4236 46.0221 12.4757 46.0572 12.5331 46.0808C12.5906 46.1048 12.6521 46.117 12.7143 46.117C12.7764 46.117 12.838 46.1048 12.8954 46.0808C12.9528 46.0572 13.005 46.0221 13.0489 45.9781C13.0489 45.9781 13.0489 45.5453 13.0489 45.2699C13.0489 44.9945 12.5372 45.1518 12.3797 45.3092ZM11.0021 44.2469C11.0021 44.2469 11.0021 44.6404 11.2776 44.7584C11.3108 44.7997 11.3528 44.8327 11.4004 44.8556C11.4481 44.878 11.5003 44.8902 11.5531 44.8902C11.6059 44.8902 11.6581 44.878 11.7058 44.8556C11.7535 44.8327 11.7954 44.7997 11.8286 44.7584C11.8286 44.7584 11.8286 44.3649 11.5531 44.2469C11.2776 44.1289 11.0808 44.1289 11.0021 44.2469ZM14.9382 48.8896C14.9382 48.8896 14.9382 49.4404 14.9382 49.7158C14.9382 49.9913 15.6073 50.0306 15.7648 49.7158C15.9222 49.4011 15.7648 49.165 15.7648 48.8896C15.7648 48.6142 15.2531 48.6929 15.0956 48.8896H14.9382ZM13.4818 46.9617C13.4818 46.9617 13.4818 47.4338 13.4818 47.7486C13.4818 48.0634 14.0329 48.1814 14.2297 48.0634C14.3294 47.9489 14.3843 47.8021 14.3843 47.6502C14.3843 47.4984 14.3294 47.3516 14.2297 47.2371C14.0329 46.9224 13.718 46.8043 13.4818 46.9617Z" fill="#D1D1D1"/>
</svg>
