<svg width="63" height="62" viewBox="0 0 63 62" fill="none" xmlns="http://www.w3.org/2000/svg">
<path d="M8.68775 0.00341797H54.3273C58.6632 0.00341797 62.2079 3.54932 62.2079 7.8853V53.5248C62.2079 57.8596 58.6632 61.403 54.3273 61.403H8.68775C4.35177 61.403 0.803406 57.8594 0.803406 53.5248V7.8853C0.803406 3.54932 4.35177 0.00341797 8.68775 0.00341797ZM45.5358 6.8228C44.0134 6.8228 42.7716 8.06952 42.7716 9.59112V16.2052C42.7716 17.7274 44.0134 18.9713 45.5358 18.9713H52.4751C53.9951 18.9713 55.2395 17.7274 55.2395 16.2052V9.59112C55.2395 8.06952 53.9951 6.8228 52.4751 6.8228H45.5358ZM55.2659 25.9685H49.8632C50.3755 27.6418 50.6532 29.4064 50.6532 31.2409C50.6532 41.4509 42.1045 49.7319 31.5634 49.7319C21.0249 49.7319 12.476 41.4509 12.476 31.2409C12.476 29.4064 12.7564 27.6418 13.2663 25.9685H7.62954V51.9083C7.62954 53.2516 8.72643 54.3444 10.0685 54.3444H52.828C54.1713 54.3444 55.2659 53.2516 55.2659 51.9083V25.9685ZM31.5636 18.6225C24.7559 18.6225 19.2336 23.9704 19.2336 30.5735C19.2336 37.1697 24.7559 42.5218 31.5636 42.5218C38.375 42.5218 43.8975 37.1697 43.8975 30.5735C43.8975 23.9702 38.375 18.6225 31.5636 18.6225Z" fill="#D1D1D1"/>
</svg>
