<svg width="63" height="64" viewBox="0 0 63 64" fill="none" xmlns="http://www.w3.org/2000/svg">
<path d="M14.6822 20.7815H2.04374C1.48282 20.7815 1.02832 21.2362 1.02832 21.7969V62.399C1.02832 62.9599 1.48282 63.4144 2.04374 63.4144H14.6822C15.2432 63.4144 15.6977 62.9599 15.6977 62.399V21.7969C15.6977 21.2362 15.2432 20.7815 14.6822 20.7815Z" fill="#D1D1D1"/>
<path d="M8.36754 0.597168C3.76891 0.597168 0.02771 4.33431 0.02771 8.92786C0.02771 13.5234 3.76891 17.262 8.36754 17.262C12.9625 17.262 16.7007 13.5232 16.7007 8.92786C16.7009 4.33431 12.9625 0.597168 8.36754 0.597168Z" fill="#D1D1D1"/>
<path d="M46.8291 19.7722C41.7531 19.7722 38.0007 21.9543 35.7247 24.4338V21.7968C35.7247 21.236 35.2702 20.7813 34.7093 20.7813H22.6057C22.0448 20.7813 21.5903 21.236 21.5903 21.7968V62.3988C21.5903 62.9597 22.0448 63.4142 22.6057 63.4142H35.2166C35.7775 63.4142 36.232 62.9597 36.232 62.3988V42.3102C36.232 35.5408 38.0708 32.9036 42.7896 32.9036C47.9288 32.9036 48.3372 37.1314 48.3372 42.6585V62.399C48.3372 62.9599 48.7917 63.4145 49.3527 63.4145H61.9682C62.5291 63.4145 62.9836 62.9599 62.9836 62.399V40.1281C62.9836 30.0623 61.0643 19.7722 46.8291 19.7722Z" fill="#D1D1D1"/>
</svg>
