<?xml version="1.0" encoding="utf-8"?>
<!-- Generator: Adobe Illustrator 27.2.0, SVG Export Plug-In . SVG Version: 6.00 Build 0)  -->
<svg version="1.1" id="_Слой_1" xmlns="http://www.w3.org/2000/svg" xmlns:xlink="http://www.w3.org/1999/xlink" x="0px"
	 y="0px" viewBox="0 0 171.4 224.2" style="enable-background:new 0 0 171.4 224.2;" xml:space="preserve">
<style type="text/css">
	.st0{fill:#31525B;}
	.st1{fill:#31525B;stroke:#31525B;stroke-width:0.5;stroke-miterlimit:10;}
</style>
<path class="st0" d="M97.5,96.1c-1.7,0.1-5,0.2-8.2-0.7c0-0.4,0-1,0.1-1.7c17-0.1,31.9-9.3,38.1-25.2c2.3,3.2,8.5,3.6,12.2-0.5
	c4.1-4.5,2.6-13.1-3.8-13.2c-2.7,0-4.5,0.9-5.6,2c1.7-17.1-6.4-32.7-19.8-41.1c4.3-2.5,4.8-6.6,2.2-9.2c0.2,3.2-4.1,5.3-5.5,3.9
	c3.7-2.7,1.8-8.7-2.3-10.3c0.5,4.8,0.5,10-9.2,6.6c-11.3-3.9-17.3,0.5-18.4,3.7C62.2,14.2,49.8,26.3,46,42.8
	c-0.8-1.3-2.1-2.6-4.5-3.3c-6.1-1.9-10.2,5.8-7.7,11.4c2.2,4.9,7.9,6.6,11.2,4.5C46,75,60.9,89.8,81.1,93.1c0.4,0.1,0.9,0.1,1.3,0.2
	c0,0.7,0,1.4-0.1,2.1C79.1,96.2,71.6,97,71.6,97c-2.8,0.1-16.7,8.8-22.2,14.1c0.1,0.6,0.9,1.7,2.1,2.8c-7.3,6.7-24.3-4.1-32.3-9.3
	c-0.2-1-0.6-2.3-1.2-3.4l0.1-0.4c-1-1.8-2.6-2.8-4.1-3.2l-0.6-6.8c-0.1-0.6-0.4-1.1-0.9-1.4c0.1-1.4,0.5-2.1,0.9-2.4
	c2.7-0.6,5.5-2.1,5.6-5.9c0.1-5.1-2.5-19.3-4.6-19.7C12.2,60.9,15,73.4,13,73.6s-2.6-12-4.5-11.8C6.5,62,8.3,74,6.3,74.2
	c-2,0.2-1.7-12.6-3.7-11.8L1.9,82.6c0.8,3.8,3.9,4.7,6.7,4.8c0.9,0.4,1.3,1.2,1.4,2.4c-0.3,0.4-0.4,0.8-0.4,1.3l0.9,8.9
	c-0.5-0.2-1.2-0.3-2-0.2c-1.8,0.1-2.7,1.6-1.9,2.9c-0.1,0-0.1,0.1-0.1,0.1c0,0.1,0,0.1,0,0.2c-1.5,0.9-1.8,2.7-0.9,3.4
	c-0.1,0-0.1,0.1-0.1,0.2c0,0.1,0.1,0.2,0.2,0.2c0,0,0.1,0,0.1,0c0,0,0,0,0.1,0c-1.1,1.3-0.4,3,0.4,3.4c0,0,0,0.1,0,0.1
	c0,0.1,0.1,0.2,0.2,0.2c0,0,0.1,0,0.1,0c0,0,0,0,0.1,0c0.8,1.2,2.1,2.3,4.1,2.9c0.4,0.1,0.8,0.2,1.2,0.3l1.7,18.2
	c0.1,1,1,1.8,2.1,1.7c1-0.1,1.8-1,1.7-2.1l-1.8-18.5c1-0.7,1.7-1.6,2.6-1.9c16.9,10.2,28.6,17.6,39.6,7.9c2.2,1.6,4,2.6,4.2,2.1
	c0.2,5.4,1.7,13.4,1.6,19.9c6.5,1.1,14.2,1.7,22.4,1.7c8.5,0,16.5-0.6,23.2-1.8c-0.4-6.4-1.6-18.3-1.9-24.3c1.4,1.9,2.8,1.7,5.2,3.1
	c0.4-0.3,1.2-1,2.3-1.9c11.7,8.4,22.8,0.1,38.6-11.5c1.4,0.3,2.4,2.2,4.8,2.2l-0.4,12.2c0,1,0.8,1.9,1.8,1.9c1,0,1.9-0.8,1.9-1.8
	l0.4-13.3c0.6-0.3,1.1-0.7,1.6-1.1c1.3-0.4,2.4-1.3,2.6-2.2c0,0,0.1,0,0.1,0c0,0,0.1,0,0.1,0c0.1,0,0.1-0.1,0.1-0.2c0,0,0-0.1,0-0.1
	c0.8-0.5,1.3-2.3,0.1-3.4c0,0,0.1,0,0.1,0c0,0,0.1,0,0.1,0c0.1,0,0.1-0.1,0.1-0.2c0-0.1-0.1-0.1-0.1-0.2c0.9-0.8,0.4-2.5-1.2-3.3
	c0-0.1,0.1-0.1,0-0.2c0-0.1-0.1-0.1-0.1-0.1c0.7-1.3-0.3-2.8-2.2-2.7c-0.3,0-0.6,0.1-0.8,0.1l0.5-14.6c0-0.6-0.2-1.1-0.6-1.4
	c0.1-1.3,0.4-2.3,1.4-2.8c2.8-0.2,5.1-1.4,6.6-5c2.2-5.4,2.5-20-7.4-20.5c-10.3-0.6-11.8,13.7-9.8,19.5c1.3,3.6,3.1,5.2,5.8,5.7
	c0.5,0.4,1,1.1,1.1,3c-0.4,0.3-0.7,0.8-0.8,1.4l-0.4,12.2c-1.5,0.1-3.2,0.9-4.5,2.4v0.1c-0.6,0.6-1.2,1.2-1.7,2.1l0.1,0.4
	c-0.5,1.2-0.8,2.5-0.9,3.6c-7.4,5.8-23,17.8-31,12.5c1.4-1.5,2.5-2.9,2.5-3.7c-7.3-5.7-20.2-11.7-24.6-12.6L97.5,96.1L97.5,96.1z"/>
<g>
	<path class="st1" d="M78.9,166.3c0-6.2-3.1-9.4-9.2-9.4c-5,0-9.6,3.7-13.4,8.4c0-5-2.7-9.1-7.4-9.1c-5.9,0-10.2,4.9-16,12.2l4-12.3
		c0.2-0.7-0.1-2-1.4-2c-0.3,0-0.6,0.1-0.9,0.3c-1,0.7-2.3,1.6-3.6,2.5c-6,4.4-13.5,9.7-20.1,9.7c-4.7,0-7.7-2.6-7.7-8
		c0-0.9-0.6-1.6-1.5-1.6c-0.7,0-1.4,0.6-1.5,1.3c-0.7,6.9,4.1,11.4,10.7,11.4c8.4,0,15.7-5.8,21.6-10.1l-5.6,17
		c-0.1,0.3-6.3,9.9-6.7,10.4c-6.3,8.2-10.1,14.4-10.1,18.4c0,2.5,1.1,4.5,3.8,4.5c4.7,0,6.6-3.9,10.4-15.6l5.4-16.4
		c5.4-7.9,13.1-18.7,19-18.7c3.2,0,4.5,2.9,4.5,6.6c0,1.7-0.4,3.8-1.1,6.2c-3.3,11.1-7.5,23.9-11.6,35.3c-0.3,0.9,0.3,2,1.4,2
		c0.6,0,1.2-0.4,1.4-1c6.5-18.6,7.4-21.4,12.1-37.1c3.4-5.4,8.9-11.5,14.1-11.5c4.2,0,6.4,1.9,6.4,6.6s-2.1,10.2-5.1,18.3
		c-3.1,8.5-9.8,26.4-9.8,31.6c0,4.5,2.9,7.8,7.9,7.8c0.8,0,1.4-0.6,1.4-1.4s-0.6-1.4-1.4-1.4c-2.8,0-5-1.8-5-5
		c0-4.4,6.5-22.2,9.6-30.6C76.8,177.3,79.1,171.5,78.9,166.3L78.9,166.3z M21.6,193.4c-3.1,9.8-4.6,13.4-7.6,13.4
		c-0.5,0-0.8-0.4-0.8-1.1c0.1-4.3,3.1-7.3,9.6-17c0.2-0.3,0.4-0.6,0.5-0.8L21.6,193.4L21.6,193.4z"/>
	<path class="st1" d="M87.7,172.2c1.4,0,2.4-1.1,2.4-2.4s-1.1-2.4-2.4-2.4s-2.5,1.1-2.5,2.4S86.4,172.2,87.7,172.2z"/>
	<path class="st1" d="M164.2,182.8c2.2-2.5,4-5.6,4-8.5c-0.1-2.1-1.4-3.7-3.4-3.7c-2.9,0-5.2,3.1-5.2,6.9c0,1.6,0.4,3.2,1.1,4.7
		c-0.9,0.9-1.6,1.6-2.4,2.6c-0.2,0.3-0.4,0.6-0.4,0.9c0,0.4,0.1,0.9,0.5,1.2c0.3,0.3,0.7,0.4,1.1,0.4c0.4,0,0.9-0.2,1.1-0.6
		c0.4-0.6,0.9-1.1,1.4-1.6c3.8,6.6,4.9,8.7,4.9,11.9c-0.1,5.9-4.3,9.7-10.1,9.7c-4.1,0-7.8-3.1-7.8-7.4c0.3-4.4,2.9-7.6,6.8-7.6
		c1.9,0,3.6,1.8,3.8,4.2c0,0.9,0.6,1.5,1.5,1.5s1.5-0.6,1.5-1.5c-0.1-3.9-3.1-7.2-6.9-7.2c-4.4,0-7.5,2.5-8.9,6.6
		c-3.7,7.9-6.3,11.5-9.5,11.5c-1.5,0-2.1-0.9-2.1-3c0-1.9,1.6-7.7,4.4-15.1c1.1-2.9,2.4-6.7,4-10.9c0.4-0.9-0.4-2-1.5-2
		c-0.6,0-1.1,0.4-1.4,0.9c-3.7,10.1-6.4,17.7-8.9,22.7c-2.4,4.9-5.3,7.3-8.2,7.3c-2.6,0-3.9-1.5-3.9-4.4c0-1.6,0.3-2.9,1.9-7.4
		c0,0,0-0.1,0.1-0.1c0-0.1,0-0.1,0.1-0.2c1.2-3.4,3.2-8.5,6.3-16.7c0.4-0.9-0.2-2-1.4-2c-0.6,0-1.1,0.4-1.4,0.9
		c-3.1,8.1-5.2,13.4-6.5,17.1c-4.3,9.2-6.8,12.9-10.2,12.9c-1.5,0-2.1-0.9-2.1-3c0-5.5,5.6-14.9,5.6-21.2c0-3.8-1.6-6.7-6.7-6.7
		c-2.4,0-4.6,1.4-6.6,3.5l0.6-1.4c0.4-0.9-0.4-2-1.4-2c-0.6,0-1.2,0.4-1.4,1c-1.6,4.3-3.7,10.2-5.9,16.4c-0.1,0.1-0.1,0.1-0.1,0.2
		c-2.6,5.9-5.9,13.2-10.3,13.2c-1.5,0-2.1-0.9-2.1-3c0-3.1,1.3-6.4,8.2-25.9c0.4-1.2-0.5-1.9-1.4-1.9c-0.6,0-1.1,0.4-1.4,1
		c-3.1,8.1-8.2,21.2-8.4,26.8c-0.1,3.3,1.7,6,5.1,6c2.1,0,3.9-0.9,5.5-2.3c0,0.1-0.1,0.2-0.1,0.3c-0.3,0.9,0.1,1.6,0.9,1.9
		c0.8,0.2,1.6-0.1,1.9-1l4.9-13.9c0,0,0,0,0-0.1c0,0,0-0.1,0-0.1l0-0.1c2.3-6.1,7.7-15.7,12.1-15.7c2.8,0,3.7,1.6,3.7,3.7
		c0,6.2-5.6,14.5-5.6,21.2c0,3.5,1.7,6,5.1,6c3.1,0,5.6-1.7,8.2-5.7c0.5,3.7,2.8,5.7,6.7,5.7h0.1c3.2,0,6.5-2.1,8.6-5.1
		c0.4,3.1,2,5.1,5.1,5.1c3.4,0,6.2-2.2,9.2-7.3c1.4,4.3,5.5,7.3,10.3,7.3c7.2,0,12.9-4.9,13.1-12.6
		C169.8,192.1,167.9,189.6,164.2,182.8L164.2,182.8z M162.6,177.4c0-1,0.2-2.3,1.1-3.1c0.7-0.7,1.5-0.9,1.5,0.1
		c0,1.6-1.1,3.8-2.2,5.4C162.7,178.9,162.6,178.2,162.6,177.4L162.6,177.4z"/>
</g>
</svg>
