<svg width="64" height="53" viewBox="0 0 64 53" fill="none" xmlns="http://www.w3.org/2000/svg">
<path d="M61.5833 6.36805C60.5934 6.80709 59.5757 7.17764 58.5358 7.47847C59.7669 6.08612 60.7056 4.44783 61.2786 2.65506C61.407 2.25322 61.2739 1.81336 60.9436 1.55054C60.6137 1.28752 60.1554 1.25601 59.7921 1.47127C57.5837 2.78109 55.2011 3.72239 52.7028 4.27283C50.1862 1.81376 46.7681 0.414307 43.2346 0.414307C35.7759 0.414307 29.7078 6.48228 29.7078 13.9408C29.7078 14.5282 29.745 15.1124 29.8185 15.6884C20.563 14.8758 11.9583 10.3266 6.04952 3.07846C5.83894 2.82011 5.51453 2.68088 5.1824 2.70751C4.85007 2.73352 4.55148 2.92093 4.38359 3.20895C3.18515 5.26535 2.55159 7.61729 2.55159 10.0103C2.55159 13.2696 3.71526 16.362 5.77085 18.7784C5.14582 18.5619 4.53928 18.2914 3.9604 17.97C3.64961 17.797 3.27032 17.7997 2.96157 17.9767C2.65261 18.1538 2.4589 18.4794 2.45077 18.8353C2.44935 18.8953 2.44935 18.9552 2.44935 19.016C2.44935 23.8811 5.06777 28.2612 9.07101 30.6485C8.72709 30.6141 8.38337 30.5643 8.04189 30.4991C7.68984 30.4318 7.32783 30.5552 7.09042 30.8237C6.85261 31.092 6.77394 31.466 6.8835 31.8075C8.36528 36.4337 12.1803 39.8365 16.7923 40.874C12.9671 43.2698 8.59273 44.5248 4.00064 44.5248C3.04247 44.5248 2.0788 44.4684 1.13567 44.3569C0.667148 44.3012 0.219159 44.5778 0.0595988 45.0234C-0.0999617 45.4691 0.0691521 45.9661 0.467748 46.2216C6.36701 50.0041 13.1883 52.0034 20.1937 52.0034C33.9655 52.0034 42.5807 45.5091 47.3828 40.0611C53.3709 33.2679 56.8052 24.2762 56.8052 15.3919C56.8052 15.0207 56.7995 14.6459 56.7881 14.2723C59.1506 12.4923 61.1847 10.3382 62.8398 7.86222C63.0913 7.48619 63.064 6.98922 62.7728 6.64306C62.4819 6.2967 61.9971 6.1847 61.5833 6.36805Z" fill="#D1D1D1"/>
</svg>
